<?xml version="1.0" standalone="no"?>
<!DOCTYPE svg PUBLIC "-//W3C//DTD SVG 20010904//EN"
 "http://www.w3.org/TR/2001/REC-SVG-20010904/DTD/svg10.dtd">
<svg version="1.0" xmlns="http://www.w3.org/2000/svg"
 width="700.000000pt" height="700.000000pt" viewBox="0 0 700.000000 700.000000"
 preserveAspectRatio="xMidYMid meet">
<metadata>
Created by potrace 1.14, written by Peter Selinger 2001-2017
</metadata>
<g transform="translate(0.000000,700.000000) scale(0.100000,-0.100000)"
fill="#000000" stroke="none">
<path d="M0 3500 l0 -2626 873 0 872 1 1 1678 c0 1182 4 1681 11 1685 14 9
811 7 820 -2 4 -3 7 -761 7 -1684 l1 -1677 907 -1 c633 0 908 3 911 10 2 6 3
764 3 1684 -1 1108 2 1672 9 1673 14 1 764 1 793 0 l22 -1 0 -1683 0 -1683
885 0 885 0 0 2626 0 2626 -3500 0 -3500 0 0 -2626z"/>
</g>
</svg>
